{
  "accessors": [
    {
      "bufferView": 2,
      "componentType": 5126,
      "count": 65532,
      "max": [
        1.7209999561309814,
        1.0898000001907349,
        1.9230999946594238
      ],
      "min": [
        -2.488800048828125,
        -0.9111999869346619,
        0.007906580343842506
      ],
      "type": "VEC3"
    },
    {
      "bufferView": 2,
      "byteOffset": 786384,
      "componentType": 5126,
      "count": 65532,
      "max": [
        1.0,
        1.0,
        1.0
      ],
      "min": [
        -0.9999629259109497,
        -1.0,
        -1.0
      ],
      "type": "VEC3"
    },
    {
      "bufferView": 1,
      "componentType": 5126,
      "count": 65532,
      "max": [
        0.9979249835014343,
        0.9978190064430237
      ],
      "min": [
        0.002076999982818961,
        0.40101999044418335
      ],
      "type": "VEC2"
    },
    {
      "bufferView": 0,
      "componentType": 5125,
      "count": 202875,
      "type": "SCALAR"
    },
    {
      "bufferView": 2,
      "byteOffset": 1572768,
      "componentType": 5126,
      "count": 65532,
      "max": [
        1.7314000129699707,
        1.0898000001907349,
        1.8960000276565552
      ],
      "min": [
        -2.50219988822937,
        -0.9122999906539917,
        0.009720337577164173
      ],
      "type": "VEC3"
    },
    {
      "bufferView": 2,
      "byteOffset": 2359152,
      "componentType": 5126,
      "count": 65532,
      "max": [
        1.0,
        1.0,
        1.0
      ],
      "min": [
        -1.0,
        -1.0,
        -1.0
      ],
      "type": "VEC3"
    },
    {
      "bufferView": 1,
      "byteOffset": 524256,
      "componentType": 5126,
      "count": 65532,
      "max": [
        0.9974719882011414,
        0.9979249835014343
      ],
      "min": [
        0.0020890000741928816,
        0.40618377923965454
      ],
      "type": "VEC2"
    },
    {
      "bufferView": 0,
      "byteOffset": 811500,
      "componentType": 5125,
      "count": 269580,
      "type": "SCALAR"
    },
    {
      "bufferView": 2,
      "byteOffset": 3145536,
      "componentType": 5126,
      "count": 6495,
      "max": [
        1.6341999769210815,
        1.013200044631958,
        1.8595999479293823
      ],
      "min": [
        -2.313199996948242,
        -0.8109999895095825,
        0.010231106542050838
      ],
      "type": "VEC3"
    },
    {
      "bufferView": 2,
      "byteOffset": 3223476,
      "componentType": 5126,
      "count": 6495,
      "max": [
        0.9996474385261536,
        1.0,
        1.0
      ],
      "min": [
        -0.9999219179153442,
        -0.999708354473114,
        -1.0
      ],
      "type": "VEC3"
    },
    {
      "bufferView": 1,
      "byteOffset": 1048512,
      "componentType": 5126,
      "count": 6495,
      "max": [
        0.9975720047950745,
        0.8580930233001709
      ],
      "min": [
        0.0021180000621825457,
        0.49650201201438904
      ],
      "type": "VEC2"
    },
    {
      "bufferView": 0,
      "byteOffset": 1889820,
      "componentType": 5125,
      "count": 21378,
      "type": "SCALAR"
    },
    {
      "bufferView": 2,
      "byteOffset": 3301416,
      "componentType": 5126,
      "count": 4,
      "max": [
        0.46714696288108826,
        -0.5416826605796814,
        0.12759560346603394
      ],
      "min": [
        0.46677881479263306,
        -0.5422016978263855,
        0.12756004929542542
      ],
      "type": "VEC3"
    },
    {
      "bufferView": 2,
      "byteOffset": 3301464,
      "componentType": 5126,
      "count": 4,
      "max": [
        0.47166961431503296,
        0.6291682720184326,
        0.6177985668182373
      ],
      "min": [
        -0.47166961431503296,
        -0.6291682720184326,
        -0.9956585168838501
      ],
      "type": "VEC3"
    },
    {
      "bufferView": 1,
      "byteOffset": 1100472,
      "componentType": 5126,
      "count": 4,
      "max": [
        0.0,
        0.0
      ],
      "min": [
        0.0,
        0.0
      ],
      "type": "VEC2"
    },
    {
      "bufferView": 0,
      "byteOffset": 1975332,
      "componentType": 5125,
      "count": 6,
      "type": "SCALAR"
    }
  ],
  "asset": {
    "extras": {
      "author": "alban (https://sketchfab.com/alban)",
      "license": "CC-BY-4.0 (http://creativecommons.org/licenses/by/4.0/)",
      "source": "https://sketchfab.com/3d-models/day-330-jeepstar-4bfd57c17fcd4404a19208878ae34192",
      "title": "Day 330: Jeepstar"
    },
    "generator": "Sketchfab-12.12.0",
    "version": "2.0"
  },
  "bufferViews": [
    {
      "buffer": 0,
      "byteLength": 1975356,
      "name": "floatBufferViews",
      "target": 34963
    },
    {
      "buffer": 0,
      "byteLength": 1100504,
      "byteOffset": 1975356,
      "byteStride": 8,
      "name": "floatBufferViews",
      "target": 34962
    },
    {
      "buffer": 0,
      "byteLength": 3301512,
      "byteOffset": 3075860,
      "byteStride": 12,
      "name": "floatBufferViews",
      "target": 34962
    }
  ],
  "buffers": [
    {
      "byteLength": 6377372,
      "uri": "scene.bin"
    }
  ],
  "extensionsUsed": [
    "KHR_materials_unlit"
  ],
  "images": [
    {
      "uri": "textures/main_baseColor.jpeg"
    }
  ],
  "materials": [
    {
      "doubleSided": true,
      "extensions": {
        "KHR_materials_unlit": {}
      },
      "name": "main",
      "pbrMetallicRoughness": {
        "baseColorTexture": {
          "index": 0
        },
        "metallicFactor": 0.0
      }
    }
  ],
  "meshes": [
    {
      "name": "Object_0",
      "primitives": [
        {
          "attributes": {
            "NORMAL": 1,
            "POSITION": 0,
            "TEXCOORD_0": 2
          },
          "indices": 3,
          "material": 0,
          "mode": 4
        }
      ]
    },
    {
      "name": "Object_1",
      "primitives": [
        {
          "attributes": {
            "NORMAL": 5,
            "POSITION": 4,
            "TEXCOORD_0": 6
          },
          "indices": 7,
          "material": 0,
          "mode": 4
        }
      ]
    },
    {
      "name": "Object_2",
      "primitives": [
        {
          "attributes": {
            "NORMAL": 9,
            "POSITION": 8,
            "TEXCOORD_0": 10
          },
          "indices": 11,
          "material": 0,
          "mode": 4
        }
      ]
    },
    {
      "name": "Object_3",
      "primitives": [
        {
          "attributes": {
            "NORMAL": 13,
            "POSITION": 12,
            "TEXCOORD_0": 14
          },
          "indices": 15,
          "material": 0,
          "mode": 4
        }
      ]
    }
  ],
  "nodes": [
    {
      "children": [
        1
      ],
      "matrix": [
        0.9998031854629517,
        -0.019839681684970856,
        -4.188453847080632e-18,
        0.0,
        0.0012411682400852442,
        0.06254757195711158,
        -0.9980412125587463,
        0.0,
        0.0198008194565773,
        0.9978447556495667,
        0.0625598877668383,
        0.0,
        -0.019303765147924423,
        -0.01111647859215735,
        -0.060575611889362335,
        1.0
      ],
      "name": "Sketchfab_model"
    },
    {
      "children": [
        2,
        3,
        4,
        5
      ],
      "name": "jeep.obj.cleaner.materialmerger.gles"
    },
    {
      "mesh": 0,
      "name": "Object_2"
    },
    {
      "mesh": 1,
      "name": "Object_3"
    },
    {
      "mesh": 2,
      "name": "Object_4"
    },
    {
      "mesh": 3,
      "name": "Object_5"
    }
  ],
  "samplers": [
    {
      "magFilter": 9729,
      "minFilter": 9987,
      "wrapS": 10497,
      "wrapT": 10497
    }
  ],
  "scene": 0,
  "scenes": [
    {
      "name": "Sketchfab_Scene",
      "nodes": [
        0
      ]
    }
  ],
  "textures": [
    {
      "sampler": 0,
      "source": 0
    }
  ]
}
